<?xml version="1.0" encoding="utf-8"?>
<!-- Generator: Adobe Illustrator 21.1.0, SVG Export Plug-In . SVG Version: 6.00 Build 0)  -->
<svg version="1.1" id="Layer_1" xmlns="http://www.w3.org/2000/svg" xmlns:xlink="http://www.w3.org/1999/xlink" x="0px" y="0px"
	 viewBox="0 0 94.9 94.2" style="enable-background:new 0 0 94.9 94.2;" xml:space="preserve">
<style type="text/css">
	.st0{fill:#B38461;}
</style>
<g id="Layer_1_1_">
	<title>advantage-1-illustration</title>
	<path class="st0" d="M89.2,28.8c-2-4.7-4.9-9-8.3-12.8L79,19.7c2.5,2.9,4.6,6.2,6.2,9.7L89.2,28.8z"/>
	<path class="st0" d="M86.7,61c1.6,0.6,2.5,1.9,2.8,3.4c2.1-5.4,3.4-11.1,3.4-17.2c0-2-0.1-4.2-0.4-6.2c-1.2,1-2.3,1.9-3.6,2.6
		c0.1,1.2,0.2,2.2,0.2,3.4C89.2,52,88.3,56.7,86.7,61z"/>
	<path class="st0" d="M5.2,47c0-23.2,18.8-42,42-42c7.4,0,14.6,1.9,21,5.6l3.2-2.5C50.1-5.6,21.8,0.6,8,21.9S0.4,71.6,21.8,85.3
		c2.6,1.8,5.6,3.1,8.5,4.3c-0.4-1.5-0.6-2.9-0.6-4.5C14.7,78.3,5.2,63.4,5.2,47z"/>
	<path class="st0" d="M61.1,86.6C56.7,88.1,52,89,47.2,89h-2.3c0.1,0.6,0.2,1.2,0.2,1.8c0,0.8-0.1,1.5-0.4,2.1h2.4
		c6,0,11.7-1.2,16.9-3.2C62.5,89.2,61.6,88,61.1,86.6z"/>
	<path class="st0" d="M5.1,65.2c2,4.7,4.9,9,8.3,12.8l1.9-3.7c-2.5-2.9-4.6-6.2-6.2-9.7L5.1,65.2z"/>
	<path class="st0" d="M49.5,5c-0.1-0.6-0.2-1.2-0.2-1.8c0-0.8,0.1-1.5,0.4-2.1h-2.4C21.9,1.1,1.4,21.5,1.4,46.8c0,2,0.1,4.2,0.4,6.2
		c1.2-1,2.3-1.9,3.6-2.6c-0.1-1.2-0.2-2.2-0.2-3.4c0-23.2,18.8-42,42-42H49.5z"/>
	<path class="st0" d="M61.1,86.7c-4.4,1.6-9.1,2.4-13.9,2.4c-7.4,0-14.6-1.9-21-5.6L23,85.9c13,8.4,28.6,9.4,42,4
		C62.9,89.6,61.6,88.2,61.1,86.7z"/>
	<path class="st0" d="M86.7,61c2.1,0.8,3.1,2.9,2.9,5c9.2-20.4,2.2-44.8-17-57.3C70,7,67,5.6,64.1,4.5C64.5,6,64.7,7.4,64.7,9
		c14.9,6.8,24.5,21.7,24.5,38C89.2,52,88.3,56.7,86.7,61z"/>
</g>
<g id="Layer_1_2_">
	<title>advantage-1-illustration</title>
	<path class="st0" d="M5.1,65.2c2,4.7,4.9,9,8.3,12.8l1.9-3.7c-2.5-2.9-4.6-6.2-6.2-9.7L5.1,65.2z"/>
	<path class="st0" d="M7.6,33c-1.6-0.6-2.5-1.9-2.8-3.4C2.7,35,1.4,40.7,1.4,46.8c0,2,0.1,4.2,0.4,6.2c1.2-1,2.3-1.9,3.6-2.6
		c-0.1-1.2-0.2-2.2-0.2-3.4C5.2,42.1,6.1,37.4,7.6,33z"/>
	<path class="st0" d="M89.2,47c0,23.2-18.8,42-42,42c-7.4,0-14.6-1.9-21-5.6L23,85.9c21.3,13.7,49.7,7.6,63.4-13.7S94,22.5,72.7,8.8
		C70,7,67,5.6,64.1,4.5C64.5,6,64.7,7.4,64.7,9C79.6,15.8,89.2,30.7,89.2,47z"/>
	<path class="st0" d="M33.2,7.5c4.4-1.6,9.1-2.5,14-2.5h2.3c-0.1-0.6-0.2-1.2-0.2-1.8c0-0.8,0.1-1.5,0.4-2.1h-2.4
		c-6,0-11.7,1.2-16.9,3.2C31.9,4.8,32.8,6,33.2,7.5z"/>
	<path class="st0" d="M89.2,28.8c-2-4.7-4.9-9-8.3-12.8L79,19.7c2.5,2.9,4.6,6.2,6.2,9.7L89.2,28.8z"/>
	<path class="st0" d="M44.8,89c0.1,0.6,0.2,1.2,0.2,1.8c0,0.8-0.1,1.5-0.4,2.1H47c25.4,0,46-20.4,46-45.7c0-2-0.1-4.2-0.4-6.2
		c-1.2,1-2.3,1.9-3.6,2.6c0.1,1.2,0.2,2.2,0.2,3.4c0,23.2-18.8,42-42,42H44.8z"/>
	<path class="st0" d="M33.2,7.4C37.6,5.8,42.3,5,47.1,5c7.4,0,14.6,1.9,21,5.6l3.2-2.4c-13-8.4-28.6-9.4-42-4
		C31.5,4.5,32.8,5.8,33.2,7.4z"/>
	<path class="st0" d="M7.6,33c-2.1-0.8-3.1-2.9-2.9-5c-9.2,20.4-2.2,44.8,17,57.3c2.6,1.8,5.6,3.1,8.5,4.3c-0.4-1.5-0.6-2.9-0.6-4.5
		C14.7,78.3,5.2,63.4,5.2,47C5.2,42.1,6.1,37.4,7.6,33z"/>
</g>
<g>
	<g>
		<path class="st0" d="M55,43.3c0.6-5.1,5.5-5.5,5.5-5.5v-8.2c0,0-0.2,0-0.5,0c-1.5,0-5.7-0.7-7.6-8.2h-8.2
			c-1.9,7.5-6.1,8.2-7.6,8.2c-0.3,0-0.5,0-0.5,0v8.2c0,0,4.9,0.3,5.5,5.5c0.6,5.1-8.2,14.6-8.2,19V65h12.8v14.2h-1l-6.3,5.5v1.5H42
			l6.3-2.7l6.3,2.7h3.2v-1.5l-6.3-5.5h-1V65h12.8v-2.7C63,57.9,54.4,48.5,55,43.3z M56.9,55.3c1.5,2.4,3.4,5.7,3.4,7H36
			c0-1.3,1.9-4.6,3.4-7c2.5-4.3,5.2-8.7,4.7-12.3c-0.5-4.2-3-6.3-5.5-7.2v-3.6c2.3-0.6,5.6-2.5,7.4-7.9h4.1c1.9,5.4,5.2,7.2,7.4,7.9
			v3.6c-2.3,1-5,3.1-5.5,7.2C51.8,46.7,54.5,51.1,56.9,55.3z"/>
		<path class="st0" d="M66.4,32.6c-0.4-0.3-1.2-0.4-1.3,0.4c-0.1,0.9,1.3,1.6,1.3,1.6s1.4-0.7,1.3-1.6
			C67.5,32.2,66.8,32.2,66.4,32.6z"/>
		<path class="st0" d="M27.8,35.6c-0.2-0.2-0.7-0.2-0.8,0.2c-0.1,0.6,0.8,1,0.8,1s0.8-0.4,0.8-1C28.5,35.4,28,35.4,27.8,35.6z"/>
		<path class="st0" d="M45,17c0,0,0.8-0.4,0.8-1c0-0.4-0.5-0.4-0.8-0.2c-0.2-0.2-0.7-0.2-0.8,0.2C44.3,16.6,45,17,45,17z"/>
		<path class="st0" d="M29.1,16.3c0,0,0.8-0.4,0.8-1c0-0.4-0.5-0.4-0.8-0.2c-0.2-0.2-0.7-0.2-0.8,0.2C28.3,16,29.1,16.3,29.1,16.3z"
			/>
		<path class="st0" d="M67.1,18.7c-0.2-0.2-0.7-0.2-0.8,0.2c-0.1,0.6,0.8,1,0.8,1s0.8-0.4,0.8-1C67.8,18.5,67.3,18.5,67.1,18.7z"/>
		<path class="st0" d="M46.7,10.1c0,0,0.8-0.4,0.8-1c0-0.4-0.5-0.4-0.8-0.2c-0.2-0.2-0.7-0.2-0.8,0.2C45.9,9.7,46.7,10.1,46.7,10.1z
			"/>
		<path class="st0" d="M38.9,22.5c-0.5-0.4-1.4-0.4-1.5,0.4c-0.1,1.1,1.5,1.9,1.5,1.9s1.6-0.9,1.5-1.9
			C40.3,22.1,39.3,22.1,38.9,22.5z"/>
		<path class="st0" d="M46,18.3c-0.1,0.9,1.3,1.6,1.3,1.6s1.4-0.7,1.3-1.6c-0.1-0.7-0.9-0.7-1.3-0.4C46.8,17.6,46,17.6,46,18.3z"/>
		<path class="st0" d="M69.1,24c-0.4-0.3-1.2-0.4-1.3,0.4c-0.1,0.9,1.3,1.6,1.3,1.6s1.4-0.7,1.3-1.6C70.3,23.6,69.5,23.6,69.1,24z"
			/>
		<path class="st0" d="M32.8,31.4c-0.4-0.3-1.2-0.4-1.3,0.4c-0.1,0.9,1.3,1.6,1.3,1.6s1.4-0.7,1.3-1.6
			C33.9,31.1,33.1,31.1,32.8,31.4z"/>
		<path class="st0" d="M50.9,18.1c0,0,1.4-0.7,1.3-1.6c-0.1-0.7-0.9-0.7-1.3-0.4c-0.4-0.3-1.2-0.4-1.3,0.4
			C49.5,17.4,50.9,18.1,50.9,18.1z"/>
		<path class="st0" d="M59.9,13.4c0,0,1.4-0.7,1.3-1.6c-0.1-0.7-0.9-0.7-1.3-0.4c-0.4-0.3-1.2-0.4-1.3,0.4
			C58.6,12.7,59.9,13.4,59.9,13.4z"/>
		<path class="st0" d="M61,24.8c-0.2,1.6,2,2.7,2,2.7s2.2-1.2,2-2.7c-0.1-1.2-1.5-1.2-2-0.6C62.5,23.6,61.1,23.6,61,24.8z"/>
		<path class="st0" d="M31.6,38.7c-0.8-0.7-2.3-0.7-2.4,0.7c-0.2,1.9,2.4,3.2,2.4,3.2s2.6-1.4,2.4-3.2C33.8,38,32.3,38.1,31.6,38.7z
			"/>
		<path class="st0" d="M30.1,28.4c0,0,3.3-1.8,3.1-4c-0.2-1.8-2.1-1.8-3.1-0.9c-1-0.9-2.9-0.9-3.1,0.9
			C26.8,26.7,30.1,28.4,30.1,28.4z"/>
		<path class="st0" d="M64,39.5c-1-0.9-2.9-0.9-3.1,0.9c-0.2,2.2,3.1,4,3.1,4s3.3-1.8,3.1-4C66.9,38.6,65,38.7,64,39.5z"/>
		<path class="st0" d="M54,12.8c0,0,3.3-1.8,3.1-4C56.8,7.1,54.9,7.2,54,8c-1-0.9-2.9-0.9-3.1,0.9C50.6,11.1,54,12.8,54,12.8z"/>
		<path class="st0" d="M54.3,17.2c-0.4,3.6,4.9,6.3,4.9,6.3s5.3-2.7,4.9-6.3c-0.3-2.7-3.4-2.7-4.9-1.4
			C57.7,14.5,54.6,14.4,54.3,17.2z"/>
		<path class="st0" d="M36.8,18.9c0,0,4.8-2.5,4.4-5.7c-0.3-2.5-3.1-2.4-4.4-1.3c-1.4-1.3-4.2-1.3-4.5,1.3
			C32,16.3,36.8,18.9,36.8,18.9z"/>
	</g>
</g>
</svg>
