<?xml version="1.0" encoding="utf-8"?>
<!-- Generator: Adobe Illustrator 21.1.0, SVG Export Plug-In . SVG Version: 6.00 Build 0)  -->
<svg version="1.1" id="Layer_1" xmlns="http://www.w3.org/2000/svg" xmlns:xlink="http://www.w3.org/1999/xlink" x="0px" y="0px"
	 viewBox="0 0 94.9 94.2" style="enable-background:new 0 0 94.9 94.2;" xml:space="preserve">
<style type="text/css">
	.st0{fill:#B38461;}
</style>
<g id="Layer_1_1_">
	<title>advantage-1-illustration</title>
	<path class="st0" d="M89.1,29.2c-2-4.7-4.9-8.9-8.3-12.7l-1.9,3.7c2.5,2.9,4.6,6.2,6.2,9.7L89.1,29.2z"/>
	<path class="st0" d="M86.6,61.4c1.6,0.6,2.5,1.9,2.8,3.4c2.1-5.3,3.4-11.1,3.4-17.2c0-2-0.1-4.2-0.4-6.2c-1.2,1-2.3,1.8-3.6,2.6
		c0.1,1.2,0.2,2.2,0.2,3.4C89,52.3,88.1,57,86.6,61.4z"/>
	<path class="st0" d="M5.2,47.4C5.2,24.2,24,5.5,47.1,5.5c7.4,0,14.6,1.9,21,5.6l3.2-2.5C50-5.1,21.7,1,8,22.3S0.4,71.9,21.7,85.6
		c2.6,1.7,5.5,3.1,8.5,4.3c-0.4-1.5-0.6-2.9-0.6-4.5C14.7,78.6,5.2,63.7,5.2,47.4z"/>
	<path class="st0" d="M61,86.8c-4.4,1.6-9,2.4-13.9,2.4h-2.3c0.1,0.6,0.2,1.2,0.2,1.7c0,0.8-0.1,1.5-0.4,2.1H47
		c6,0,11.7-1.2,16.9-3.2C62.4,89.4,61.5,88.3,61,86.8z"/>
	<path class="st0" d="M5.1,65.5c2,4.7,4.9,8.9,8.3,12.7l1.9-3.7c-2.5-2.9-4.6-6.2-6.2-9.7L5.1,65.5z"/>
	<path class="st0" d="M49.4,5.5c-0.1-0.6-0.2-1.2-0.2-1.7c0-0.8,0.1-1.5,0.4-2.1h-2.4C21.9,1.6,1.4,21.9,1.4,47.2
		c0,2,0.1,4.2,0.4,6.2c1.2-1,2.3-1.8,3.6-2.6c-0.1-1.2-0.2-2.2-0.2-3.4C5.2,24.2,24,5.5,47.1,5.5H49.4z"/>
	<path class="st0" d="M61,86.9c-4.4,1.6-9,2.4-13.9,2.4c-7.4,0-14.6-1.9-21-5.6l-3.2,2.4c12.9,8.4,28.6,9.3,41.9,4
		C62.8,89.8,61.5,88.5,61,86.9z"/>
	<path class="st0" d="M86.6,61.4c2.1,0.8,3.1,2.9,2.9,5c9.1-20.3,2.2-44.7-17-57.2C69.9,7.4,66.9,6,64,4.9c0.4,1.5,0.6,2.9,0.6,4.5
		C79.5,16.1,89,31,89,47.4C89,52.3,88.1,57,86.6,61.4z"/>
</g>
<g id="Layer_1_2_">
	<title>advantage-1-illustration</title>
	<path class="st0" d="M5.1,65.5c2,4.7,4.9,8.9,8.3,12.7l1.9-3.7c-2.5-2.9-4.6-6.2-6.2-9.7L5.1,65.5z"/>
	<path class="st0" d="M7.6,33.4C6,32.8,5.1,31.5,4.8,30c-2.1,5.3-3.4,11-3.4,17.2c0,2,0.1,4.2,0.4,6.2c1.2-1,2.3-1.8,3.6-2.6
		c-0.1-1.2-0.2-2.2-0.2-3.4C5.2,42.4,6.1,37.7,7.6,33.4z"/>
	<path class="st0" d="M89,47.4c0,23.1-18.8,41.9-41.9,41.9c-7.4,0-14.6-1.9-21-5.6l-3.2,2.5c21.3,13.7,49.6,7.6,63.3-13.7
		s7.6-49.6-13.7-63.3C69.9,7.4,66.9,6,64,4.9c0.4,1.5,0.6,2.9,0.6,4.5C79.5,16.1,89,31,89,47.4z"/>
	<path class="st0" d="M33.2,7.9c4.4-1.6,9-2.4,13.9-2.4h2.3c-0.1-0.6-0.2-1.2-0.2-1.7c0-0.8,0.1-1.5,0.4-2.1h-2.4
		c-6,0-11.7,1.2-16.9,3.2C31.8,5.3,32.7,6.4,33.2,7.9z"/>
	<path class="st0" d="M89.1,29.2c-2-4.7-4.9-8.9-8.3-12.7l-1.9,3.7c2.5,2.9,4.6,6.2,6.2,9.7L89.1,29.2z"/>
	<path class="st0" d="M44.8,89.3c0.1,0.6,0.2,1.2,0.2,1.7c0,0.8-0.1,1.5-0.4,2.1H47c25.3,0,45.8-20.3,45.8-45.6c0-2-0.1-4.2-0.4-6.2
		c-1.2,1-2.3,1.8-3.6,2.6c0.1,1.2,0.2,2.2,0.2,3.4c0,23.1-18.8,41.9-41.9,41.9h-2.3V89.3z"/>
	<path class="st0" d="M33.2,7.8c4.4-1.6,9-2.4,13.9-2.4c7.4,0,14.6,1.9,21,5.6l3.2-2.4c-12.9-8.4-28.6-9.3-41.9-4
		C31.5,4.9,32.7,6.2,33.2,7.8z"/>
	<path class="st0" d="M7.6,33.4c-2.1-0.8-3.1-2.9-2.9-5c-9.1,20.3-2.2,44.7,17,57.2c2.6,1.7,5.5,3.1,8.5,4.3
		c-0.4-1.5-0.6-2.9-0.6-4.5c-14.9-6.8-24.4-21.7-24.4-38C5.2,42.4,6.1,37.7,7.6,33.4z"/>
</g>
<g>
	<g>
		<path class="st0" d="M71.5,52.8c1.1-1.4,1.6-2.9,1.5-4.4c-0.1-1.7-0.9-2.9-1.5-3.7c0.7-1.8,1-4.6-1.4-6.8c-1.7-1.6-4.7-2.3-8.8-2
			c-2.9,0.2-5.3,0.7-5.4,0.7l0,0c-0.5,0.1-1.2,0.3-1.7,0.4c-0.1-0.7,0.1-2.4,1.4-6.4c1.5-4.7,1.5-8.3-0.3-10.6
			c-1.8-2.5-4.8-2.7-5.5-2.7s-1.6,0.4-2,1c-1.3,1.5-1.1,4-0.9,5.2c-1.5,3.8-5.5,13.3-9,16c0,0.1-0.1,0.1-0.2,0.2
			c-1,1.1-1.7,2.1-2.1,3.2c-0.7-0.4-1.4-0.5-2.1-0.5h-6.7c-2.5,0-4.6,2-4.6,4.6v17.7c0,2.5,2,4.6,4.6,4.6h6.7c1,0,1.9-0.3,2.6-0.9
			l2.6,0.3c0.4,0.1,7.4,1,14.6,0.9c1.3,0.1,2.6,0.2,3.7,0.2c2,0,3.7-0.2,5.2-0.4c3.4-0.7,5.6-2,6.8-4.3c0.9-1.6,0.9-3.1,0.8-4.3
			c2.1-2,2.6-4.2,2.5-5.7C71.9,54.2,71.6,53.4,71.5,52.8z M26.4,66.2c-0.9,0-1.6-0.8-1.6-1.6V46.8c0-0.9,0.8-1.6,1.6-1.6h6.7
			c0.9,0,1.6,0.8,1.6,1.6v17.9c0,0.9-0.8,1.6-1.6,1.6L26.4,66.2L26.4,66.2z M68.6,51.5c-0.4,0.4-0.5,1.3-0.3,1.8
			c0,0,0.4,0.8,0.5,1.8c0.1,1.5-0.6,2.7-2,3.7c-0.5,0.4-0.8,1.1-0.5,1.7c0,0,0.4,1.5-0.3,2.9c-0.8,1.3-2.3,2.2-4.9,2.8
			c-2,0.4-4.7,0.5-8,0.3c-0.1,0-0.1,0-0.2,0c-7.1,0.2-14.2-0.8-14.3-0.8l0,0l-1.1-0.1c0.1-0.3,0.1-0.6,0.1-1v-18
			c0-0.4-0.1-0.9-0.3-1.4c0.3-0.8,0.8-2.3,2-3.7c4.9-3.9,9.7-17.1,10-17.7c0.1-0.3,0.1-0.4,0.1-0.8c-0.2-1.3-0.2-2.7,0.2-3.1
			c0.6,0,2.1,0.2,3.1,1.5c1.2,1.6,1.1,4.3-0.2,8c-1.7,5.5-1.9,8.5-0.4,9.7c0.8,0.7,1.7,0.7,2.4,0.4c0.7-0.2,1.3-0.3,1.9-0.4
			c0.1,0,0.1,0,0.2,0c3.4-0.8,9.4-1.3,11.6,0.8c1.8,1.7,0.5,3.7,0.4,4c-0.4,0.6-0.3,1.5,0.3,1.9c0,0,1.2,1.2,1.3,2.6
			C70.1,49.5,69.7,50.6,68.6,51.5z"/>
	</g>
</g>
<path class="st0" d="M-22.4,11.9"/>
</svg>
