<?xml version="1.0" encoding="utf-8"?>
<!-- Generator: Adobe Illustrator 21.1.0, SVG Export Plug-In . SVG Version: 6.00 Build 0)  -->
<svg version="1.1" id="Layer_1" xmlns="http://www.w3.org/2000/svg" xmlns:xlink="http://www.w3.org/1999/xlink" x="0px" y="0px"
	 viewBox="0 0 94.9 94.2" style="enable-background:new 0 0 94.9 94.2;" xml:space="preserve">
<style type="text/css">
	.st0{fill:#B38461;}
</style>
<g id="Layer_1_1_">
	<title>advantage-1-illustration</title>
	<path class="st0" d="M88.6,29.1c-2-4.6-4.8-8.8-8.2-12.6l-1.9,3.6c2.5,2.9,4.5,6.1,6.1,9.6L88.6,29.1z"/>
	<path class="st0" d="M86.1,60.9c1.5,0.6,2.5,1.9,2.8,3.4c2.1-5.3,3.4-10.9,3.4-17c0-2-0.1-4.1-0.4-6.1c-1.2,1-2.3,1.8-3.5,2.6
		c0.1,1.2,0.2,2.2,0.2,3.4C88.5,51.9,87.6,56.5,86.1,60.9z"/>
	<path class="st0" d="M5.8,47.1c0-22.8,18.5-41.3,41.3-41.3c7.3,0,14.4,1.9,20.7,5.6L71,8.8C50-4.7,22.1,1.3,8.6,22.3
		S1.1,71.2,22.1,84.7c2.6,1.7,5.5,3.1,8.3,4.2c-0.4-1.4-0.6-2.9-0.6-4.4C15.2,77.8,5.8,63.2,5.8,47.1z"/>
	<path class="st0" d="M60.9,86c-4.3,1.5-8.9,2.4-13.7,2.4h-2.3c0.1,0.6,0.2,1.2,0.2,1.7c0,0.8-0.1,1.4-0.4,2.1H47
		c5.9,0,11.5-1.2,16.7-3.2C62.2,88.6,61.3,87.4,60.9,86z"/>
	<path class="st0" d="M5.7,65c2,4.6,4.8,8.8,8.2,12.6l1.9-3.6c-2.5-2.9-4.5-6.1-6.1-9.6L5.7,65z"/>
	<path class="st0" d="M49.4,5.7c-0.1-0.6-0.2-1.2-0.2-1.7c0-0.8,0.1-1.4,0.4-2.1h-2.4C22.3,1.9,2,21.9,2,46.9c0,2,0.1,4.1,0.4,6.1
		c1.2-1,2.3-1.8,3.5-2.6c-0.1-1.2-0.2-2.2-0.2-3.4C5.7,24.2,24.2,5.7,47,5.7H49.4z"/>
	<path class="st0" d="M60.9,86.1c-4.3,1.5-8.9,2.4-13.7,2.4c-7.3,0-14.4-1.9-20.7-5.6l-3.2,2.4c12.8,8.2,28.2,9.2,41.3,3.9
		C62.6,89,61.3,87.6,60.9,86.1z"/>
	<path class="st0" d="M86.1,60.9c2.1,0.8,3.1,2.9,2.9,4.9c9-20,2.2-44.1-16.8-56.4c-2.6-1.7-5.5-3.1-8.3-4.2
		c0.4,1.4,0.6,2.9,0.6,4.4C79.2,16.3,88.6,31,88.6,47.1C88.5,51.9,87.6,56.5,86.1,60.9z"/>
</g>
<g id="Layer_1_copy">
	<title>advantage-1-illustration</title>
	<g>
		<path class="st0" d="M81.1,66l-8.5,12.2l-5.9-4.9c-0.7-0.6-1.6-0.5-2.1,0.2c-0.6,0.7-0.5,1.6,0.2,2.1l7.3,5.9
			c0.3,0.2,0.6,0.4,1,0.4c0.1,0,0.1,0,0.2,0c0.4-0.1,0.8-0.3,1.1-0.7l9.4-13.5c0.5-0.7,0.3-1.6-0.4-2.1C82.5,65.2,81.6,65.4,81.1,66
			z"/>
		<path class="st0" d="M49,41.2V25.9c0-0.9-0.7-1.5-1.5-1.5c-0.9,0-1.5,0.7-1.5,1.5v15.3c-2.2,0.6-3.9,2.3-4.4,4.5H30.8
			c-0.9,0-1.5,0.7-1.5,1.5s0.7,1.5,1.5,1.5h10.9c0.8,2.5,3.1,4.3,5.8,4.3c3.4,0,6-2.7,6-6C53.6,44.3,51.7,41.9,49,41.2z M47.5,50.1
			c-1.6,0-3.1-1.3-3.1-3.1c0-1.7,1.3-3.1,3.1-3.1c1.7,0,3.1,1.3,3.1,3.1S49.2,50.1,47.5,50.1z"/>
		<path class="st0" d="M47.5,16.8c0.9,0,1.5-0.7,1.5-1.5v-1.5c0-0.9-0.7-1.5-1.5-1.5c-0.9,0-1.5,0.7-1.5,1.5v1.5
			C46,16.2,46.7,16.8,47.5,16.8z"/>
		<path class="st0" d="M47.5,77.3c-0.9,0-1.5,0.7-1.5,1.5v1.5c0,0.9,0.7,1.5,1.5,1.5c0.9,0,1.5-0.7,1.5-1.5v-1.5
			C49,77.9,48.3,77.3,47.5,77.3z"/>
		<path class="st0" d="M79.4,48.6h1.5c0.9,0,1.5-0.7,1.5-1.5c0-0.9-0.7-1.5-1.5-1.5h-1.5c-0.9,0-1.5,0.7-1.5,1.5
			C77.8,47.9,78.5,48.6,79.4,48.6z"/>
		<path class="st0" d="M15.6,45.5h-1.5c-0.9,0-1.5,0.7-1.5,1.5c0,0.9,0.7,1.5,1.5,1.5h1.5c0.9,0,1.5-0.7,1.5-1.5
			S16.5,45.5,15.6,45.5z"/>
		<path class="st0" d="M70,26.1c0.4,0,0.8-0.2,1.1-0.5l1.1-1.1c0.6-0.6,0.6-1.5,0-2.1s-1.5-0.6-2.1,0L69,23.5
			c-0.6,0.6-0.6,1.5,0,2.1C69.2,26,69.6,26.1,70,26.1z"/>
		<path class="st0" d="M23.8,68.4l-1.1,1.1c-0.6,0.6-0.6,1.5,0,2.1c0.3,0.3,0.7,0.5,1.1,0.5s0.8-0.2,1.1-0.5l1.1-1.1
			c0.6-0.6,0.6-1.5,0-2.1C25.5,67.9,24.5,67.9,23.8,68.4z"/>
		<path class="st0" d="M25,22.5c-0.6-0.6-1.5-0.6-2.1,0s-0.6,1.5,0,2.1l1.1,1.1c0.3,0.3,0.7,0.5,1.1,0.5s0.8-0.2,1.1-0.5
			c0.6-0.6,0.6-1.5,0-2.1L25,22.5z"/>
		<path class="st0" d="M90.2,62.9c0.1-0.2,0.2-0.5,0.2-0.7c-0.6-0.5-1.1-1.1-1.3-1.7c-0.4-0.4-0.7-0.8-0.9-1.2
			c-0.1,0.2-0.1,0.5-0.2,0.7c-0.1-0.1-0.3-0.3-0.4-0.4c-0.3-0.3-0.5-0.5-0.8-0.8c-0.2-0.2-0.5-0.5-0.8-0.7s-0.5-0.4-0.8-0.6
			c-0.3-0.2-0.6-0.4-0.9-0.7c-0.3-0.2-0.5-0.3-0.8-0.5s-0.6-0.4-1-0.6c-0.3-0.2-0.6-0.3-0.9-0.4c-0.3-0.2-0.6-0.3-1-0.5
			c-0.3-0.1-0.7-0.3-1-0.4c-0.3-0.1-0.6-0.2-0.9-0.3c-0.4-0.1-0.8-0.2-1.2-0.3c-0.3-0.1-0.6-0.2-0.8-0.2c-0.5-0.1-0.9-0.2-1.3-0.2
			c-0.2,0-0.4-0.1-0.7-0.1c-0.7-0.1-1.3-0.1-2.1-0.1c-10.8,0-19.8,8.8-19.8,19.7c0,0.7,0,1.3,0.1,2c0,0.2,0.1,0.4,0.1,0.7
			c0.1,0.5,0.1,1,0.2,1.3c0.1,0.3,0.1,0.6,0.2,0.8c0.1,0.4,0.2,0.8,0.3,1.2c0.1,0.3,0.2,0.6,0.3,0.9s0.2,0.7,0.4,1
			c0.1,0.3,0.3,0.7,0.5,1c0.1,0.3,0.3,0.6,0.4,0.8c0.2,0.3,0.4,0.6,0.6,1c0.2,0.3,0.3,0.5,0.5,0.8s0.4,0.6,0.7,0.9
			c0.2,0.3,0.4,0.5,0.6,0.8s0.5,0.5,0.7,0.8c0.3,0.3,0.5,0.5,0.8,0.8c0.1,0.1,0.3,0.3,0.4,0.4c-0.3,0.1-0.7,0.2-1,0.3
			c1.2,0.5,1.9,1.3,2.4,2.4c0.6-0.2,1.1-0.3,1.6-0.5c3,1.7,6.4,2.8,10.1,2.8c10.8,0,19.8-8.8,19.8-19.7C93,69.3,91.9,65.9,90.2,62.9
			z M73.2,89.5c-3.4,0-6.5-1.1-9.1-2.8c-0.6-0.4-1.1-0.8-1.6-1.2c-0.1-0.1-0.2-0.2-0.3-0.3c-0.4-0.3-0.8-0.7-1.1-1.1
			c-0.2-0.2-0.3-0.3-0.5-0.5c-0.3-0.3-0.6-0.7-0.8-1c-0.1-0.2-0.3-0.4-0.4-0.6c-0.3-0.5-0.6-0.9-0.9-1.3c-0.1-0.1-0.1-0.3-0.2-0.4
			c-0.3-0.5-0.5-1-0.7-1.4c-0.1-0.2-0.2-0.4-0.2-0.6c-0.2-0.4-0.3-0.8-0.4-1.2c-0.1-0.2-0.1-0.4-0.2-0.7c-0.1-0.4-0.2-0.9-0.3-1.3
			c0-0.2-0.1-0.4-0.1-0.6c-0.1-0.7-0.1-1.2-0.1-1.9C56.3,63.4,63.8,56,73,56c0.7,0,1.2,0,1.9,0.1c0.2,0,0.4,0.1,0.6,0.1
			c0.5,0.1,0.9,0.2,1.3,0.3c0.2,0.1,0.5,0.1,0.7,0.2c0.4,0.1,0.8,0.3,1.2,0.4c0.2,0.1,0.4,0.1,0.6,0.2c0.5,0.2,1,0.4,1.4,0.7
			c0.1,0.1,0.3,0.1,0.4,0.2c0.5,0.3,1,0.6,1.3,0.9c0.2,0.1,0.4,0.3,0.6,0.4c0.3,0.3,0.7,0.5,1,0.8c0.2,0.2,0.3,0.3,0.5,0.5
			c0.4,0.4,0.7,0.7,1.1,1.1c0.1,0.1,0.2,0.2,0.3,0.3c0.4,0.5,0.8,1.1,1.2,1.5c1.7,2.6,2.8,5.8,2.8,9.1
			C89.9,82.2,82.4,89.5,73.2,89.5z"/>
	</g>
</g>
</svg>
