<?xml version="1.0" encoding="utf-8"?>
<!-- Generator: Adobe Illustrator 21.1.0, SVG Export Plug-In . SVG Version: 6.00 Build 0)  -->
<svg version="1.1" xmlns="http://www.w3.org/2000/svg" xmlns:xlink="http://www.w3.org/1999/xlink" x="0px" y="0px"
	 viewBox="0 0 369.5 153" style="enable-background:new 0 0 369.5 153;" xml:space="preserve">
<style type="text/css">
	.st0{display:none;}
	.st1{display:inline;fill:#110D0D;}
	.st2{display:inline;fill:#636466;stroke:#F68931;stroke-miterlimit:10;}
	.st3{display:inline;fill:#050505;}
	.st4{font-family:'Arial-Black';}
	.st5{font-size:55.5528px;}
	.st6{fill:#FFFFFF;}
	.st7{font-family:'BrushScriptMT';}
	.st8{font-size:81.4589px;}
	.st9{font-size:46px;}
</style>
<g id="Layer_2_1_" class="st0">
	<rect x="-23.5" y="-11.9" class="st1" width="398.5" height="177.6"/>
</g>
<g id="Layer_1">
	<g id="Layer_3" class="st0">
		<rect x="-49.9" y="-29.7" class="st2" width="458.6" height="208.6"/>
		<text transform="matrix(0.9682 0 0 1 17.3999 93.8232)" class="st3 st4 st5">KUTUZOVA</text>
	</g>
	<g id="Layer_1_copy">
	</g>
	<g id="Layer_1_1_">
		<title>logotype-desktop</title>
		<text transform="matrix(1.1199 0 0 1 43.2397 84.3877)" class="st6 st7 st8">Kutuzova</text>
		<text transform="matrix(0.9682 0 0 1 139.999 35.0361)" class="st6 st7 st9">Anna</text>
		<g>
			<g>
				<path class="st6" d="M234.3,104.8c-5.4-0.6-10.4-0.9-14.9-0.9c-18.7,0-24.6,5.4-27.8,8.3l-0.5,0.5c-2.4,2.1-6.3,2.4-8.4,2.4
					h-1.8h-1.8c-2.1,0-6.1-0.3-8.4-2.4l-0.5-0.5c-3.2-2.9-9.2-8.3-27.8-8.3c-4.5,0-9.5,0.3-14.9,0.9c-2.5,0.3-4.5,2.6-4.4,5.1
					c0.4,6.3,2.7,22,14.2,29.9c5,3.5,10.7,5.3,16.5,5.3c11.8,0,20.6-7.6,22.4-19.4c0-0.2,0.7-3.9,4.5-3.9h0.3h0.2
					c3.9,0,4.5,3.7,4.5,3.9c1.8,11.8,10.6,19.4,22.4,19.4c5.7,0,11.4-1.8,16.5-5.3c11.5-8,13.8-23.6,14.2-29.9
					C238.8,107.5,236.8,105.1,234.3,104.8z M156.2,140.2c-0.8,0.1-1.6,0.1-2.3,0.1c-6.4,0-11.5-1.8-14.9-5.5
					c-5.5-5.8-5.7-14.8-5.6-18.4c0-0.6,0.6-1.4,1.2-1.7c2.9-1.2,8.8-3.2,15.2-3.2c2.6,0,5,0.3,7.3,1c9.2,2.8,13.1,6.8,13.1,13.5
					C170.1,133.3,163.7,139.7,156.2,140.2z M222.6,134.8c-3.5,3.6-8.5,5.5-14.9,5.5c-0.8,0-1.5,0-2.4-0.1c-7.5-0.5-13.9-7-13.9-14.1
					c0-6.7,3.9-10.7,13.1-13.5c2.2-0.7,4.7-1,7.3-1c6.4,0,12.3,2,15.2,3.2c0.6,0.2,1.2,1.1,1.2,1.7C228.3,120,228.1,129,222.6,134.8
					z"/>
			</g>
		</g>
	</g>
	<g id="Layer_2">
	</g>
</g>
</svg>
